<svg width="59" height="71" viewBox="0 0 59 71" fill="none" xmlns="http://www.w3.org/2000/svg">
<path d="M31.5218 1.129C37.6666 7.9531 46.1366 12.1576 55.2204 12.8932C56.9079 13.0537 58.1942 14.4964 58.1818 16.2152V24.5992C58.1818 42.824 46.7513 59.4968 30.8805 69.8133C29.79 70.5229 28.3919 70.5229 27.3016 69.8133C11.4306 59.4968 8.67187e-05 42.824 8.67187e-05 24.5992V16.2152C-0.0121593 14.4964 1.27401 13.0537 2.96156 12.8932C12.0453 12.1576 20.5154 7.9531 26.6601 1.129C27.8184 -0.232452 29.8458 -0.383879 31.1884 0.790787C31.3075 0.895076 31.4191 1.00812 31.5218 1.129Z" fill="#C1664E"/>
</svg>
