<svg width="258" height="71" viewBox="0 0 258 71" fill="none" xmlns="http://www.w3.org/2000/svg">
<path d="M75.8305 45.2344C75.1766 45.2344 74.6266 45.0114 74.1807 44.5655C73.7646 44.1196 73.5565 43.5846 73.5565 42.9603V20.978C73.5565 18.7485 73.9875 16.8312 74.8496 15.226C75.7414 13.591 77.1236 12.3277 78.9964 11.4359C80.8988 10.5441 83.3512 10.0982 86.3535 10.0982C87.7804 10.0982 89.014 10.2617 90.0544 10.5887C91.1246 10.9157 91.9569 11.3616 92.5514 11.9264C93.1459 12.4912 93.4432 13.16 93.4432 13.9329C93.4432 15.2408 92.6406 15.8948 91.0354 15.8948C90.4111 15.8948 89.8463 15.761 89.341 15.4935C88.8654 15.226 88.3898 14.9138 87.9142 14.5571C87.4385 14.2004 86.9332 13.8883 86.3981 13.6208C85.8631 13.3532 85.2388 13.2195 84.5254 13.2195C83.4255 13.2195 82.3851 13.4424 81.4042 13.8883C80.4232 14.3045 79.6206 15.0773 78.9964 16.2069C78.4018 17.3365 78.1046 18.9269 78.1046 20.978V42.9603C78.1046 43.5846 77.8816 44.1196 77.4357 44.5655C77.0196 45.0114 76.4845 45.2344 75.8305 45.2344ZM71.6392 25.5706C71.0149 25.5706 70.5096 25.3923 70.1231 25.0356C69.7367 24.6788 69.5435 24.233 69.5435 23.6979C69.5435 23.1034 69.7367 22.6277 70.1231 22.271C70.5096 21.9143 71.0149 21.736 71.6392 21.736H82.6972C83.3215 21.736 83.8268 21.9143 84.2133 22.271C84.5997 22.6277 84.7929 23.1034 84.7929 23.6979C84.7929 24.233 84.5997 24.6788 84.2133 25.0356C83.8268 25.3923 83.3215 25.5706 82.6972 25.5706H71.6392ZM90.6787 45.2344C90.0247 45.2344 89.4748 45.0263 89.0289 44.6101C88.6127 44.1642 88.4046 43.6143 88.4046 42.9603V23.1182C88.4046 22.4345 88.6127 21.8846 89.0289 21.4684C89.4748 21.0523 90.0247 20.8442 90.6787 20.8442C91.3624 20.8442 91.9123 21.0523 92.3285 21.4684C92.7446 21.8846 92.9527 22.4345 92.9527 23.1182V42.9603C92.9527 43.6143 92.7446 44.1642 92.3285 44.6101C91.9123 45.0263 91.3624 45.2344 90.6787 45.2344ZM110.113 45.2344C108.627 45.2344 107.289 44.8628 106.1 44.1196C104.911 43.3468 103.975 42.3064 103.291 40.9984C102.607 39.6905 102.266 38.219 102.266 36.5841V15.3152C102.266 14.6612 102.474 14.1261 102.89 13.7099C103.306 13.2938 103.841 13.0857 104.495 13.0857C105.149 13.0857 105.684 13.2938 106.1 13.7099C106.516 14.1261 106.724 14.6612 106.724 15.3152V36.5841C106.724 37.7731 107.051 38.769 107.705 39.5716C108.359 40.3742 109.162 40.7755 110.113 40.7755H111.629C112.164 40.7755 112.61 40.9836 112.967 41.3997C113.353 41.8159 113.547 42.351 113.547 43.0049C113.547 43.6589 113.294 44.194 112.789 44.6101C112.313 45.0263 111.689 45.2344 110.916 45.2344H110.113ZM100.214 25.5706C99.5902 25.5706 99.0849 25.3923 98.6984 25.0356C98.312 24.6788 98.1188 24.233 98.1188 23.6979C98.1188 23.1034 98.312 22.6277 98.6984 22.271C99.0849 21.9143 99.5902 21.736 100.214 21.736H110.515C111.139 21.736 111.644 21.9143 112.031 22.271C112.417 22.6277 112.61 23.1034 112.61 23.6979C112.61 24.233 112.417 24.6788 112.031 25.0356C111.644 25.3923 111.139 25.5706 110.515 25.5706H100.214ZM151.151 45.279C150.498 45.279 149.948 45.0709 149.502 44.6547C149.086 44.2088 148.877 43.6589 148.877 43.0049V30.2525C148.877 28.3797 148.417 26.9975 147.495 26.1057C146.574 25.1842 145.37 24.7234 143.883 24.7234C142.338 24.7234 141.059 25.2585 140.049 26.3286C139.068 27.3988 138.577 28.7662 138.577 30.4308H134.876C134.876 28.4986 135.293 26.8043 136.125 25.3477C136.957 23.8614 138.117 22.7021 139.603 21.8697C141.119 21.0374 142.843 20.6212 144.775 20.6212C146.47 20.6212 147.971 20.9928 149.279 21.736C150.587 22.4791 151.597 23.579 152.311 25.0356C153.054 26.4624 153.426 28.2014 153.426 30.2525V43.0049C153.426 43.6589 153.217 44.2088 152.801 44.6547C152.385 45.0709 151.835 45.279 151.151 45.279ZM121.411 45.279C120.757 45.279 120.207 45.0709 119.761 44.6547C119.345 44.2088 119.137 43.6589 119.137 43.0049V23.1628C119.137 22.4791 119.345 21.9292 119.761 21.513C120.207 21.0969 120.757 20.8888 121.411 20.8888C122.094 20.8888 122.644 21.0969 123.06 21.513C123.477 21.9292 123.685 22.4791 123.685 23.1628V43.0049C123.685 43.6589 123.477 44.2088 123.06 44.6547C122.644 45.0709 122.094 45.279 121.411 45.279ZM136.303 45.279C135.649 45.279 135.099 45.0709 134.654 44.6547C134.237 44.2088 134.029 43.6589 134.029 43.0049V30.2525C134.029 28.3797 133.569 26.9975 132.647 26.1057C131.726 25.1842 130.522 24.7234 129.035 24.7234C127.49 24.7234 126.211 25.2585 125.201 26.3286C124.19 27.3988 123.685 28.7662 123.685 30.4308H120.876C120.876 28.4986 121.262 26.8043 122.035 25.3477C122.808 23.8614 123.878 22.7021 125.245 21.8697C126.613 21.0374 128.173 20.6212 129.927 20.6212C131.621 20.6212 133.123 20.9928 134.431 21.736C135.739 22.4791 136.749 23.579 137.463 25.0356C138.206 26.4624 138.577 28.2014 138.577 30.2525V43.0049C138.577 43.6589 138.369 44.2088 137.953 44.6547C137.537 45.0709 136.987 45.279 136.303 45.279ZM172.442 45.4127C169.974 45.4127 167.775 44.8925 165.843 43.8521C163.94 42.782 162.439 41.3254 161.339 39.4824C160.269 37.6097 159.734 35.4694 159.734 33.0616C159.734 30.624 160.239 28.4838 161.25 26.6408C162.29 24.768 163.717 23.3114 165.53 22.271C167.344 21.2009 169.424 20.6658 171.773 20.6658C174.091 20.6658 176.083 21.186 177.748 22.2264C179.412 23.2371 180.676 24.6491 181.538 26.4624C182.43 28.246 182.876 30.3119 182.876 32.6603C182.876 33.2251 182.682 33.7007 182.296 34.0871C181.909 34.4438 181.419 34.6222 180.824 34.6222H162.855V31.0551H180.691L178.862 32.3036C178.833 30.8173 178.536 29.4945 177.971 28.3351C177.406 27.1461 176.603 26.2097 175.563 25.526C174.522 24.8423 173.259 24.5005 171.773 24.5005C170.078 24.5005 168.622 24.8721 167.403 25.6152C166.214 26.3584 165.307 27.3839 164.683 28.6919C164.059 29.9701 163.747 31.4266 163.747 33.0616C163.747 34.6965 164.118 36.1531 164.862 37.4313C165.605 38.7095 166.63 39.7202 167.938 40.4634C169.246 41.2065 170.747 41.5781 172.442 41.5781C173.363 41.5781 174.3 41.4146 175.251 41.0876C176.232 40.7309 177.019 40.3296 177.614 39.8837C178.06 39.5567 178.536 39.3932 179.041 39.3932C179.576 39.3635 180.037 39.5121 180.423 39.8391C180.928 40.285 181.196 40.7755 181.226 41.3105C181.255 41.8456 181.018 42.3064 180.512 42.6928C179.502 43.4954 178.238 44.1494 176.722 44.6547C175.236 45.1601 173.809 45.4127 172.442 45.4127ZM198.863 45.4127C196.545 45.4127 194.449 44.8777 192.576 43.8075C190.733 42.7077 189.262 41.2214 188.162 39.3486C187.092 37.4759 186.557 35.3653 186.557 33.017C186.557 30.6686 187.047 28.5729 188.028 26.7299C189.039 24.8572 190.406 23.3858 192.131 22.3156C193.855 21.2158 195.802 20.6658 197.972 20.6658C199.726 20.6658 201.346 21.0374 202.832 21.7806C204.318 22.494 205.567 23.4749 206.577 24.7234V12.6844C206.577 12.0007 206.785 11.4508 207.202 11.0346C207.647 10.6184 208.197 10.4104 208.851 10.4104C209.535 10.4104 210.085 10.6184 210.501 11.0346C210.917 11.4508 211.125 12.0007 211.125 12.6844V33.017C211.125 35.3653 210.575 37.4759 209.476 39.3486C208.405 41.2214 206.949 42.7077 205.106 43.8075C203.263 44.8777 201.182 45.4127 198.863 45.4127ZM198.863 41.3997C200.379 41.3997 201.732 41.043 202.921 40.3296C204.11 39.5864 205.046 38.5757 205.73 37.2975C206.414 36.0193 206.756 34.5925 206.756 33.017C206.756 31.4118 206.414 29.9849 205.73 28.7364C205.046 27.4879 204.11 26.507 202.921 25.7936C201.732 25.0504 200.379 24.6788 198.863 24.6788C197.377 24.6788 196.025 25.0504 194.806 25.7936C193.617 26.507 192.666 27.4879 191.952 28.7364C191.268 29.9849 190.927 31.4118 190.927 33.017C190.927 34.5925 191.268 36.0193 191.952 37.2975C192.666 38.5757 193.617 39.5864 194.806 40.3296C196.025 41.043 197.377 41.3997 198.863 41.3997ZM221.877 45.2344C221.223 45.2344 220.673 45.0263 220.227 44.6101C219.811 44.1642 219.603 43.6143 219.603 42.9603V23.1182C219.603 22.4345 219.811 21.8846 220.227 21.4684C220.673 21.0523 221.223 20.8442 221.877 20.8442C222.561 20.8442 223.111 21.0523 223.527 21.4684C223.943 21.8846 224.151 22.4345 224.151 23.1182V42.9603C224.151 43.6143 223.943 44.1642 223.527 44.6101C223.111 45.0263 222.561 45.2344 221.877 45.2344ZM221.877 16.8758C221.074 16.8758 220.376 16.5934 219.781 16.0286C219.216 15.4341 218.934 14.7355 218.934 13.9329C218.934 13.1303 219.216 12.4466 219.781 11.8818C220.376 11.2873 221.074 10.99 221.877 10.99C222.68 10.99 223.363 11.2873 223.928 11.8818C224.523 12.4466 224.82 13.1303 224.82 13.9329C224.82 14.7355 224.523 15.4341 223.928 16.0286C223.363 16.5934 222.68 16.8758 221.877 16.8758ZM236.893 36.3166L234.128 33.2845L247.817 21.0671C248.263 20.651 248.753 20.4577 249.288 20.4875C249.853 20.5172 250.329 20.755 250.715 21.2009C251.131 21.6468 251.325 22.1373 251.295 22.6723C251.265 23.2074 251.027 23.683 250.581 24.0992L236.893 36.3166ZM234.797 45.2344C234.143 45.2344 233.608 45.0412 233.192 44.6547C232.805 44.2386 232.612 43.7035 232.612 43.0495V12.5952C232.612 11.9412 232.805 11.421 233.192 11.0346C233.608 10.6184 234.143 10.4104 234.797 10.4104C235.451 10.4104 235.971 10.6184 236.358 11.0346C236.774 11.421 236.982 11.9412 236.982 12.5952V43.0495C236.982 43.7035 236.774 44.2386 236.358 44.6547C235.971 45.0412 235.451 45.2344 234.797 45.2344ZM250.715 45.0114C250.24 45.3979 249.705 45.5614 249.11 45.5019C248.545 45.4722 248.07 45.2195 247.683 44.7439L238.632 33.5521L241.753 30.6092L251.027 42.024C251.414 42.4996 251.577 43.0198 251.518 43.5846C251.488 44.1196 251.221 44.5953 250.715 45.0114Z" fill="#C1664E"/>
<path d="M31.5218 1.129C37.6666 7.9531 46.1366 12.1576 55.2204 12.8932C56.9079 13.0537 58.1942 14.4964 58.1818 16.2152V24.5992C58.1818 42.824 46.7513 59.4968 30.8805 69.8133C29.79 70.5229 28.3919 70.5229 27.3016 69.8133C11.4306 59.4968 8.67187e-05 42.824 8.67187e-05 24.5992V16.2152C-0.0121593 14.4964 1.27401 13.0537 2.96156 12.8932C12.0453 12.1576 20.5154 7.9531 26.6601 1.129C27.8184 -0.232452 29.8458 -0.383879 31.1884 0.790787C31.3075 0.895076 31.4191 1.00812 31.5218 1.129Z" fill="#C1664E"/>
<path d="M26.6687 46.5176H26.5211C25.8799 46.4674 25.3374 45.9663 25.1894 45.3151L21.7862 26.977L19.6654 33.4906C19.4681 34.0918 18.9256 34.4927 18.2844 34.4927H9.40643V31.4864H17.1992L20.7997 20.5136C20.997 19.8624 21.6382 19.4615 22.2795 19.5115C22.9205 19.5617 23.5124 20.0628 23.6111 20.714L27.0633 39.503L32.0938 25.9749C32.3405 25.3737 32.8829 24.9729 33.5243 25.023C34.1656 25.0731 34.708 25.474 34.906 26.1252L37.7168 35.4947L40.8734 31.9874C41.169 31.6868 41.5636 31.4864 41.9581 31.4864H48.8639V34.4927H42.5995L38.1114 39.503C37.767 39.9039 37.2232 40.0541 36.6809 39.9539C36.1385 39.8537 35.7439 39.4529 35.5962 38.9018L33.3765 31.1857L28.0504 45.5655C27.8524 46.1167 27.2613 46.5176 26.6687 46.5176Z" fill="white"/>
<path d="M74.0309 67.6787C73.8388 67.6787 73.6772 67.6132 73.5462 67.4822C73.4152 67.3512 73.3497 67.1896 73.3497 66.9975V58.1282C73.3497 57.9273 73.4152 57.7657 73.5462 57.6434C73.6772 57.5124 73.8388 57.4469 74.0309 57.4469C74.2318 57.4469 74.3934 57.5124 74.5157 57.6434C74.6467 57.7657 74.7122 57.9273 74.7122 58.1282V61.8881H80.791V58.1282C80.791 57.9273 80.8565 57.7657 80.9875 57.6434C81.1185 57.5124 81.2801 57.4469 81.4723 57.4469C81.6731 57.4469 81.8347 57.5124 81.957 57.6434C82.0793 57.7657 82.1404 57.9273 82.1404 58.1282V66.9975C82.1404 67.1896 82.0793 67.3512 81.957 67.4822C81.8347 67.6132 81.6731 67.6787 81.4723 67.6787C81.2801 67.6787 81.1185 67.6132 80.9875 67.4822C80.8565 67.3512 80.791 67.1896 80.791 66.9975V63.0934H74.7122V66.9975C74.7122 67.1896 74.6467 67.3512 74.5157 67.4822C74.3934 67.6132 74.2318 67.6787 74.0309 67.6787ZM85.4431 67.6787C85.2509 67.6787 85.0893 67.6132 84.9583 67.4822C84.8273 67.3512 84.7618 67.1896 84.7618 66.9975V58.1282C84.7618 57.9273 84.8273 57.7657 84.9583 57.6434C85.0893 57.5124 85.2509 57.4469 85.4431 57.4469H91.3647C91.5655 57.4469 91.7271 57.5081 91.8494 57.6303C91.9717 57.7439 92.0328 57.8967 92.0328 58.0889C92.0328 58.2723 91.9717 58.4207 91.8494 58.5343C91.7271 58.6478 91.5655 58.7046 91.3647 58.7046H86.1243V61.8881H89.8843C90.0851 61.8881 90.2467 61.9493 90.369 62.0715C90.4913 62.1851 90.5524 62.3335 90.5524 62.517C90.5524 62.7004 90.4913 62.8532 90.369 62.9755C90.2467 63.089 90.0851 63.1458 89.8843 63.1458H86.1243V66.421H91.3647C91.5655 66.421 91.7271 66.4778 91.8494 66.5913C91.9717 66.7049 92.0328 66.8534 92.0328 67.0368C92.0328 67.2289 91.9717 67.3861 91.8494 67.5084C91.7271 67.6219 91.5655 67.6787 91.3647 67.6787H85.4431ZM93.5289 67.6787C93.2843 67.6787 93.0965 67.5739 92.9655 67.3643C92.8345 67.1547 92.8214 66.932 92.9262 66.6961L96.6076 57.9054C96.7386 57.5998 96.9526 57.4469 97.2495 57.4469C97.5639 57.4469 97.7779 57.5998 97.8915 57.9054L101.586 66.7223C101.682 66.9669 101.665 67.1896 101.534 67.3905C101.411 67.5826 101.223 67.6787 100.97 67.6787C100.839 67.6787 100.713 67.6438 100.59 67.5739C100.477 67.4953 100.394 67.3905 100.341 67.2595L97.0923 59.1893H97.4591L94.1577 67.2595C94.0966 67.3992 94.0049 67.504 93.8826 67.5739C93.769 67.6438 93.6511 67.6787 93.5289 67.6787ZM94.2232 65.4254L94.7472 64.2987H99.8828L100.407 65.4254H94.2232ZM103.815 67.6787C103.623 67.6787 103.461 67.6132 103.33 67.4822C103.208 67.3512 103.147 67.1896 103.147 66.9975V58.1282C103.147 57.936 103.212 57.7744 103.343 57.6434C103.474 57.5124 103.631 57.4469 103.815 57.4469C104.007 57.4469 104.168 57.5124 104.299 57.6434C104.43 57.7744 104.496 57.936 104.496 58.1282V66.3162H109.238C109.431 66.3162 109.592 66.3817 109.723 66.5127C109.854 66.6437 109.92 66.8053 109.92 66.9975C109.92 67.1896 109.854 67.3512 109.723 67.4822C109.592 67.6132 109.431 67.6787 109.238 67.6787H103.815ZM112.877 67.6787C112.685 67.6787 112.523 67.6132 112.392 67.4822C112.261 67.3512 112.196 67.1896 112.196 66.9975V57.4469H113.558V66.9975C113.558 67.1896 113.493 67.3512 113.362 67.4822C113.231 67.6132 113.069 67.6787 112.877 67.6787ZM109.366 58.7046C109.182 58.7046 109.03 58.6478 108.907 58.5343C108.794 58.412 108.737 58.2592 108.737 58.0758C108.737 57.8923 108.794 57.7439 108.907 57.6303C109.03 57.5081 109.182 57.4469 109.366 57.4469H116.375C116.558 57.4469 116.707 57.5081 116.82 57.6303C116.942 57.7439 117.004 57.8923 117.004 58.0758C117.004 58.2592 116.942 58.412 116.82 58.5343C116.707 58.6478 116.558 58.7046 116.375 58.7046H109.366ZM119.193 67.6787C119.001 67.6787 118.839 67.6132 118.708 67.4822C118.577 67.3512 118.512 67.1896 118.512 66.9975V58.1282C118.512 57.9273 118.577 57.7657 118.708 57.6434C118.839 57.5124 119.001 57.4469 119.193 57.4469C119.394 57.4469 119.556 57.5124 119.678 57.6434C119.809 57.7657 119.874 57.9273 119.874 58.1282V61.8881H125.953V58.1282C125.953 57.9273 126.019 57.7657 126.15 57.6434C126.281 57.5124 126.442 57.4469 126.635 57.4469C126.835 57.4469 126.997 57.5124 127.119 57.6434C127.242 57.7657 127.303 57.9273 127.303 58.1282V66.9975C127.303 67.1896 127.242 67.3512 127.119 67.4822C126.997 67.6132 126.835 67.6787 126.635 67.6787C126.442 67.6787 126.281 67.6132 126.15 67.4822C126.019 67.3512 125.953 67.1896 125.953 66.9975V63.0934H119.874V66.9975C119.874 67.1896 119.809 67.3512 119.678 67.4822C119.556 67.6132 119.394 67.6787 119.193 67.6787ZM134.509 67.8097C133.802 67.8097 133.138 67.6787 132.518 67.4167C131.907 67.1459 131.37 66.7747 130.907 66.3031C130.452 65.8228 130.094 65.2638 129.832 64.6262C129.579 63.9886 129.452 63.2986 129.452 62.5563C129.452 61.8226 129.579 61.1414 129.832 60.5125C130.094 59.8749 130.452 59.3203 130.907 58.8487C131.37 58.3683 131.907 57.9928 132.518 57.722C133.129 57.4513 133.793 57.3159 134.509 57.3159C135.182 57.3159 135.758 57.4032 136.239 57.5779C136.728 57.7526 137.217 58.0408 137.706 58.4426C137.776 58.495 137.828 58.5518 137.863 58.6129C137.907 58.6653 137.933 58.7221 137.942 58.7832C137.959 58.8356 137.968 58.9011 137.968 58.9797C137.968 59.1457 137.907 59.2854 137.785 59.3989C137.671 59.5038 137.531 59.5649 137.365 59.5824C137.199 59.5911 137.038 59.5343 136.881 59.412C136.557 59.1326 136.221 58.9186 135.872 58.7701C135.531 58.6216 135.077 58.5474 134.509 58.5474C133.994 58.5474 133.509 58.6522 133.055 58.8618C132.601 59.0714 132.199 59.3596 131.85 59.7265C131.509 60.0933 131.243 60.5213 131.051 61.0104C130.859 61.4907 130.763 62.006 130.763 62.5563C130.763 63.1152 130.859 63.6393 131.051 64.1284C131.243 64.6087 131.509 65.0323 131.85 65.3992C132.199 65.766 132.601 66.0542 133.055 66.2638C133.509 66.4647 133.994 66.5651 134.509 66.5651C134.955 66.5651 135.374 66.4909 135.767 66.3424C136.169 66.1852 136.553 65.9712 136.92 65.7005C137.077 65.5869 137.23 65.5389 137.378 65.5564C137.536 65.5651 137.667 65.6262 137.772 65.7398C137.876 65.8446 137.929 65.9931 137.929 66.1852C137.929 66.2725 137.911 66.3599 137.876 66.4472C137.841 66.5258 137.789 66.6001 137.719 66.6699C137.247 67.0455 136.741 67.3294 136.199 67.5215C135.667 67.7136 135.103 67.8097 134.509 67.8097ZM139.702 67.6787C139.457 67.6787 139.27 67.5739 139.138 67.3643C139.007 67.1547 138.994 66.932 139.099 66.6961L142.781 57.9054C142.912 57.5998 143.126 57.4469 143.422 57.4469C143.737 57.4469 143.951 57.5998 144.064 57.9054L147.759 66.7223C147.855 66.9669 147.837 67.1896 147.706 67.3905C147.584 67.5826 147.396 67.6787 147.143 67.6787C147.012 67.6787 146.885 67.6438 146.763 67.5739C146.65 67.4953 146.567 67.3905 146.514 67.2595L143.265 59.1893H143.632L140.331 67.2595C140.27 67.3992 140.178 67.504 140.056 67.5739C139.942 67.6438 139.824 67.6787 139.702 67.6787ZM140.396 65.4254L140.92 64.2987H146.056L146.58 65.4254H140.396ZM150.001 67.6787C149.809 67.6787 149.647 67.6132 149.516 67.4822C149.385 67.3512 149.32 67.1896 149.32 66.9975V58.1282C149.32 57.9273 149.385 57.7657 149.516 57.6434C149.647 57.5124 149.809 57.4469 150.001 57.4469H152.359C153.014 57.4469 153.595 57.5867 154.101 57.8661C154.608 58.1369 155.001 58.5125 155.28 58.9928C155.569 59.4732 155.713 60.0322 155.713 60.6697C155.713 61.2636 155.569 61.792 155.28 62.2549C155.001 62.7178 154.608 63.0803 154.101 63.3423C153.595 63.6043 153.014 63.7353 152.359 63.7353H150.682V66.9975C150.682 67.1896 150.617 67.3512 150.486 67.4822C150.363 67.6132 150.202 67.6787 150.001 67.6787ZM155.438 67.6787C155.315 67.6787 155.202 67.6525 155.097 67.6001C155.001 67.5477 154.918 67.4647 154.848 67.3512L152.49 63.5519L153.813 63.172L155.962 66.6306C156.119 66.8839 156.141 67.1241 156.027 67.3512C155.914 67.5695 155.717 67.6787 155.438 67.6787ZM150.682 62.4777H152.359C152.761 62.4777 153.114 62.4034 153.42 62.2549C153.726 62.0977 153.966 61.8837 154.141 61.613C154.315 61.3335 154.403 61.0191 154.403 60.6697C154.403 60.2854 154.315 59.9448 154.141 59.6479C153.966 59.3509 153.726 59.1195 153.42 58.9535C153.114 58.7876 152.761 58.7046 152.359 58.7046H150.682V62.4777ZM158.278 67.6787C158.086 67.6787 157.925 67.6132 157.794 67.4822C157.663 67.3512 157.597 67.1896 157.597 66.9975V58.1282C157.597 57.9273 157.663 57.7657 157.794 57.6434C157.925 57.5124 158.086 57.4469 158.278 57.4469H164.2C164.401 57.4469 164.562 57.5081 164.685 57.6303C164.807 57.7439 164.868 57.8967 164.868 58.0889C164.868 58.2723 164.807 58.4207 164.685 58.5343C164.562 58.6478 164.401 58.7046 164.2 58.7046H158.96V61.8881H162.72C162.92 61.8881 163.082 61.9493 163.204 62.0715C163.327 62.1851 163.388 62.3335 163.388 62.517C163.388 62.7004 163.327 62.8532 163.204 62.9755C163.082 63.089 162.92 63.1458 162.72 63.1458H158.96V66.421H164.2C164.401 66.421 164.562 66.4778 164.685 66.5913C164.807 66.7049 164.868 66.8534 164.868 67.0368C164.868 67.2289 164.807 67.3861 164.685 67.5084C164.562 67.6219 164.401 67.6787 164.2 67.6787H158.278ZM170.464 67.6787C170.272 67.6787 170.111 67.6132 169.98 67.4822C169.849 67.3512 169.783 67.1896 169.783 66.9975V58.1282C169.783 57.9273 169.849 57.7657 169.98 57.6434C170.111 57.5124 170.272 57.4469 170.464 57.4469H176.386C176.587 57.4469 176.748 57.5081 176.871 57.6303C176.993 57.7439 177.054 57.8967 177.054 58.0889C177.054 58.2723 176.993 58.4207 176.871 58.5343C176.748 58.6478 176.587 58.7046 176.386 58.7046H171.146V61.8881H174.906C175.106 61.8881 175.268 61.9493 175.39 62.0715C175.513 62.1851 175.574 62.3335 175.574 62.517C175.574 62.7004 175.513 62.8532 175.39 62.9755C175.268 63.089 175.106 63.1458 174.906 63.1458H171.146V66.9975C171.146 67.1896 171.08 67.3512 170.949 67.4822C170.818 67.6132 170.657 67.6787 170.464 67.6787ZM183.526 67.8097C182.757 67.8097 182.054 67.6831 181.417 67.4298C180.779 67.1678 180.229 66.8053 179.766 66.3424C179.312 65.8708 178.958 65.3162 178.705 64.6786C178.452 64.0323 178.325 63.3248 178.325 62.5563C178.325 61.7877 178.452 61.0846 178.705 60.447C178.958 59.8094 179.312 59.2592 179.766 58.7963C180.229 58.3247 180.779 57.9622 181.417 57.7089C182.054 57.4469 182.757 57.3159 183.526 57.3159C184.295 57.3159 184.993 57.4469 185.622 57.7089C186.26 57.9622 186.81 58.3247 187.273 58.7963C187.736 59.2592 188.094 59.8094 188.347 60.447C188.6 61.0846 188.727 61.7877 188.727 62.5563C188.727 63.3248 188.6 64.0323 188.347 64.6786C188.094 65.3162 187.736 65.8708 187.273 66.3424C186.81 66.8053 186.26 67.1678 185.622 67.4298C184.993 67.6831 184.295 67.8097 183.526 67.8097ZM183.526 66.5782C184.094 66.5782 184.613 66.4778 185.085 66.2769C185.565 66.0673 185.98 65.7834 186.33 65.4254C186.679 65.0585 186.945 64.6306 187.129 64.1415C187.321 63.6524 187.417 63.124 187.417 62.5563C187.417 61.9886 187.321 61.4602 187.129 60.9711C186.945 60.482 186.679 60.0584 186.33 59.7003C185.98 59.3334 185.565 59.0496 185.085 58.8487C184.613 58.6478 184.094 58.5474 183.526 58.5474C182.958 58.5474 182.434 58.6478 181.954 58.8487C181.482 59.0496 181.072 59.3334 180.722 59.7003C180.382 60.0584 180.115 60.482 179.923 60.9711C179.731 61.4602 179.635 61.9886 179.635 62.5563C179.635 63.124 179.731 63.6524 179.923 64.1415C180.115 64.6306 180.382 65.0585 180.722 65.4254C181.072 65.7834 181.482 66.0673 181.954 66.2769C182.434 66.4778 182.958 66.5782 183.526 66.5782ZM191.542 67.6787C191.35 67.6787 191.189 67.6132 191.058 67.4822C190.927 67.3512 190.861 67.1896 190.861 66.9975V58.1282C190.861 57.9273 190.927 57.7657 191.058 57.6434C191.189 57.5124 191.35 57.4469 191.542 57.4469H193.901C194.556 57.4469 195.136 57.5867 195.643 57.8661C196.15 58.1369 196.543 58.5125 196.822 58.9928C197.11 59.4732 197.254 60.0322 197.254 60.6697C197.254 61.2636 197.11 61.792 196.822 62.2549C196.543 62.7178 196.15 63.0803 195.643 63.3423C195.136 63.6043 194.556 63.7353 193.901 63.7353H192.224V66.9975C192.224 67.1896 192.158 67.3512 192.027 67.4822C191.905 67.6132 191.743 67.6787 191.542 67.6787ZM196.979 67.6787C196.857 67.6787 196.743 67.6525 196.639 67.6001C196.543 67.5477 196.46 67.4647 196.39 67.3512L194.032 63.5519L195.355 63.172L197.503 66.6306C197.661 66.8839 197.682 67.1241 197.569 67.3512C197.455 67.5695 197.259 67.6787 196.979 67.6787ZM192.224 62.4777H193.901C194.302 62.4777 194.656 62.4034 194.962 62.2549C195.267 62.0977 195.508 61.8837 195.682 61.613C195.857 61.3335 195.944 61.0191 195.944 60.6697C195.944 60.2854 195.857 59.9448 195.682 59.6479C195.508 59.3509 195.267 59.1195 194.962 58.9535C194.656 58.7876 194.302 58.7046 193.901 58.7046H192.224V62.4777ZM203.658 67.6787C203.466 67.6787 203.304 67.6132 203.173 67.4822C203.042 67.3512 202.977 67.1896 202.977 66.9975V58.1282C202.977 57.9273 203.042 57.7657 203.173 57.6434C203.304 57.5124 203.466 57.4469 203.658 57.4469C203.92 57.4469 204.121 57.5692 204.261 57.8137L208.361 66.028H207.942L211.938 57.8137C212.078 57.5692 212.279 57.4469 212.541 57.4469C212.733 57.4469 212.894 57.5124 213.025 57.6434C213.156 57.7657 213.222 57.9273 213.222 58.1282V66.9975C213.222 67.1896 213.152 67.3512 213.012 67.4822C212.881 67.6132 212.724 67.6787 212.541 67.6787C212.348 67.6787 212.187 67.6132 212.056 67.4822C211.925 67.3512 211.859 67.1896 211.859 66.9975V60.0147L212.121 59.9492L208.689 66.9451C208.54 67.1721 208.344 67.2857 208.099 67.2857C207.811 67.2857 207.602 67.1503 207.471 66.8796L204.077 60.0802L204.339 60.0147V66.9975C204.339 67.1896 204.274 67.3512 204.143 67.4822C204.012 67.6132 203.85 67.6787 203.658 67.6787ZM216.529 67.6787C216.337 67.6787 216.175 67.6132 216.044 67.4822C215.913 67.3512 215.848 67.1896 215.848 66.9975V58.1282C215.848 57.9273 215.913 57.7657 216.044 57.6434C216.175 57.5124 216.337 57.4469 216.529 57.4469H222.45C222.651 57.4469 222.813 57.5081 222.935 57.6303C223.057 57.7439 223.119 57.8967 223.119 58.0889C223.119 58.2723 223.057 58.4207 222.935 58.5343C222.813 58.6478 222.651 58.7046 222.45 58.7046H217.21V61.8881H220.97C221.171 61.8881 221.332 61.9493 221.455 62.0715C221.577 62.1851 221.638 62.3335 221.638 62.517C221.638 62.7004 221.577 62.8532 221.455 62.9755C221.332 63.089 221.171 63.1458 220.97 63.1458H217.21V66.421H222.45C222.651 66.421 222.813 66.4778 222.935 66.5913C223.057 66.7049 223.119 66.8534 223.119 67.0368C223.119 67.2289 223.057 67.3861 222.935 67.5084C222.813 67.6219 222.651 67.6787 222.45 67.6787H216.529ZM225.702 67.6787C225.51 67.6787 225.348 67.6132 225.217 67.4822C225.086 67.3512 225.021 67.1896 225.021 66.9975V58.1282C225.021 57.9273 225.086 57.7657 225.217 57.6434C225.348 57.5124 225.51 57.4469 225.702 57.4469H228.073C228.824 57.4469 229.506 57.5736 230.117 57.8268C230.737 58.0714 231.274 58.4251 231.728 58.888C232.183 59.3422 232.532 59.8793 232.776 60.4994C233.021 61.1195 233.143 61.8051 233.143 62.5563C233.143 63.3074 233.021 63.9974 232.776 64.6262C232.532 65.2463 232.183 65.7878 231.728 66.2507C231.274 66.7049 230.737 67.0586 230.117 67.3119C229.506 67.5564 228.824 67.6787 228.073 67.6787H225.702ZM226.383 66.4734H228.073C228.807 66.4734 229.453 66.3075 230.012 65.9756C230.58 65.635 231.025 65.1721 231.348 64.5869C231.672 63.993 231.833 63.3161 231.833 62.5563C231.833 61.7877 231.672 61.1108 231.348 60.5256C231.025 59.9404 230.58 59.4819 230.012 59.15C229.453 58.8181 228.807 58.6522 228.073 58.6522H226.383V66.4734ZM235.963 67.6787C235.77 67.6787 235.609 67.6132 235.478 67.4822C235.347 67.3512 235.281 67.1896 235.281 66.9975V58.1282C235.281 57.9273 235.347 57.7657 235.478 57.6434C235.609 57.5124 235.77 57.4469 235.963 57.4469C236.163 57.4469 236.325 57.5124 236.447 57.6434C236.578 57.7657 236.644 57.9273 236.644 58.1282V66.9975C236.644 67.1896 236.578 67.3512 236.447 67.4822C236.325 67.6132 236.163 67.6787 235.963 67.6787ZM243.846 67.8097C243.138 67.8097 242.474 67.6787 241.854 67.4167C241.243 67.1459 240.706 66.7747 240.243 66.3031C239.789 65.8228 239.431 65.2638 239.169 64.6262C238.915 63.9886 238.789 63.2986 238.789 62.5563C238.789 61.8226 238.915 61.1414 239.169 60.5125C239.431 59.8749 239.789 59.3203 240.243 58.8487C240.706 58.3683 241.243 57.9928 241.854 57.722C242.466 57.4513 243.129 57.3159 243.846 57.3159C244.518 57.3159 245.095 57.4032 245.575 57.5779C246.064 57.7526 246.553 58.0408 247.042 58.4426C247.112 58.495 247.164 58.5518 247.199 58.6129C247.243 58.6653 247.269 58.7221 247.278 58.7832C247.295 58.8356 247.304 58.9011 247.304 58.9797C247.304 59.1457 247.243 59.2854 247.121 59.3989C247.007 59.5038 246.867 59.5649 246.702 59.5824C246.536 59.5911 246.374 59.5343 246.217 59.412C245.894 59.1326 245.557 58.9186 245.208 58.7701C244.867 58.6216 244.413 58.5474 243.846 58.5474C243.33 58.5474 242.846 58.6522 242.391 58.8618C241.937 59.0714 241.535 59.3596 241.186 59.7265C240.845 60.0933 240.579 60.5213 240.387 61.0104C240.195 61.4907 240.099 62.006 240.099 62.5563C240.099 63.1152 240.195 63.6393 240.387 64.1284C240.579 64.6087 240.845 65.0323 241.186 65.3992C241.535 65.766 241.937 66.0542 242.391 66.2638C242.846 66.4647 243.33 66.5651 243.846 66.5651C244.291 66.5651 244.71 66.4909 245.103 66.3424C245.505 66.1852 245.889 65.9712 246.256 65.7005C246.413 65.5869 246.566 65.5389 246.715 65.5564C246.872 65.5651 247.003 65.6262 247.108 65.7398C247.212 65.8446 247.265 65.9931 247.265 66.1852C247.265 66.2725 247.247 66.3599 247.212 66.4472C247.178 66.5258 247.125 66.6001 247.055 66.6699C246.584 67.0455 246.077 67.3294 245.536 67.5215C245.003 67.7136 244.439 67.8097 243.846 67.8097ZM252.693 67.8097C252.134 67.8097 251.601 67.7224 251.095 67.5477C250.588 67.373 250.147 67.1285 249.772 66.8141C249.396 66.4996 249.121 66.1372 248.946 65.7267C248.859 65.5433 248.859 65.373 248.946 65.2157C249.042 65.0585 249.2 64.9581 249.418 64.9144C249.575 64.8795 249.728 64.9057 249.876 64.993C250.034 65.0716 250.152 65.1939 250.23 65.3599C250.335 65.5782 250.505 65.7791 250.741 65.9625C250.986 66.1459 251.278 66.2944 251.619 66.4079C251.96 66.5215 252.318 66.5782 252.693 66.5782C253.112 66.5782 253.497 66.5127 253.846 66.3817C254.204 66.2507 254.492 66.0629 254.711 65.8184C254.929 65.5651 255.038 65.255 255.038 64.8882C255.038 64.4253 254.855 64.0105 254.488 63.6436C254.13 63.2768 253.536 63.0497 252.706 62.9624C251.623 62.8576 250.772 62.5388 250.152 62.006C249.531 61.4733 249.221 60.8138 249.221 60.0278C249.221 59.4513 249.383 58.9622 249.706 58.5605C250.029 58.1587 250.466 57.853 251.016 57.6434C251.575 57.4338 252.195 57.329 252.877 57.329C253.409 57.329 253.872 57.4032 254.265 57.5517C254.667 57.7002 255.016 57.9054 255.313 58.1675C255.61 58.4295 255.868 58.7395 256.086 59.0976C256.209 59.2898 256.257 59.4732 256.23 59.6479C256.213 59.8138 256.13 59.9448 255.981 60.0409C255.816 60.1457 255.636 60.1675 255.444 60.1064C255.252 60.0453 255.108 59.9317 255.012 59.7658C254.872 59.5125 254.702 59.2985 254.501 59.1238C254.3 58.9491 254.064 58.8138 253.794 58.7177C253.523 58.6129 253.204 58.5605 252.837 58.5605C252.191 58.5518 251.649 58.674 251.213 58.9273C250.776 59.1719 250.558 59.5518 250.558 60.0671C250.558 60.3291 250.623 60.5824 250.754 60.8269C250.894 61.0628 251.143 61.268 251.501 61.4427C251.868 61.6174 252.392 61.7396 253.073 61.8095C254.112 61.9143 254.92 62.2331 255.497 62.7659C256.082 63.2899 256.375 63.9843 256.375 64.8489C256.375 65.3468 256.27 65.7791 256.06 66.1459C255.859 66.5127 255.584 66.8228 255.235 67.0761C254.894 67.3206 254.501 67.504 254.056 67.6263C253.619 67.7486 253.165 67.8097 252.693 67.8097Z" fill="black"/>
</svg>
